<?xml version="1.0" encoding="UTF-8"?>
<!DOCTYPE svg PUBLIC "-//W3C//DTD SVG 1.1//EN" "http://www.w3.org/Graphics/SVG/1.1/DTD/svg11.dtd">
<svg xmlns="http://www.w3.org/2000/svg" version="1.1" width="612px" height="612px" style="shape-rendering:geometricPrecision; text-rendering:geometricPrecision; image-rendering:optimizeQuality; fill-rule:evenodd; clip-rule:evenodd" xmlns:xlink="http://www.w3.org/1999/xlink">
<g><path style="opacity:1" fill="#fefefe" d="M -0.5,-0.5 C 95.5,-0.5 191.5,-0.5 287.5,-0.5C 179.282,9.27501 96.7822,60.275 40,152.5C 16.104,194.425 2.60401,239.425 -0.5,287.5C -0.5,191.5 -0.5,95.5 -0.5,-0.5 Z"/></g>
<g><path style="opacity:1" fill="#ec1b24" d="M 287.5,-0.5 C 298.167,-0.5 308.833,-0.5 319.5,-0.5C 429.247,8.11234 513.08,59.1123 571,152.5C 594.899,194.439 608.399,239.439 611.5,287.5C 611.5,298.167 611.5,308.833 611.5,319.5C 603.557,427.253 554.224,510.086 463.5,568C 418.905,593.979 370.905,608.479 319.5,611.5C 308.833,611.5 298.167,611.5 287.5,611.5C 181.738,601.884 100.238,552.551 43,463.5C 17.0348,418.975 2.53482,370.975 -0.5,319.5C -0.5,308.833 -0.5,298.167 -0.5,287.5C 2.60401,239.425 16.104,194.425 40,152.5C 96.7822,60.275 179.282,9.27501 287.5,-0.5 Z"/></g>
<g><path style="opacity:1" fill="#fefefe" d="M 319.5,-0.5 C 416.833,-0.5 514.167,-0.5 611.5,-0.5C 611.5,95.5 611.5,191.5 611.5,287.5C 608.399,239.439 594.899,194.439 571,152.5C 513.08,59.1123 429.247,8.11234 319.5,-0.5 Z"/></g>
<g><path style="opacity:1" fill="#fcfafa" d="M 183.5,135.5 C 186.607,135.351 189.607,135.851 192.5,137C 216.692,149.192 234.859,167.359 247,191.5C 253.927,206.281 258.427,221.781 260.5,238C 260.333,239.167 260.167,240.333 260,241.5C 255.99,246.341 251.823,251.008 247.5,255.5C 240.792,232.181 231.292,210.181 219,189.5C 205.65,171.418 189.484,156.418 170.5,144.5C 174.725,141.231 179.059,138.231 183.5,135.5 Z"/></g>
<g><path style="opacity:1" fill="#fefdfd" d="M 354.5,373.5 C 385.933,381.049 413.933,395.216 438.5,416C 447.462,425.952 455.628,436.452 463,447.5C 463.49,448.793 463.657,450.127 463.5,451.5C 416.63,504.216 359.964,518.05 293.5,493C 232.047,469.548 182.214,431.048 144,377.5C 113.694,329.354 102.361,277.02 110,220.5C 120.099,189.942 138.599,165.942 165.5,148.5C 195.327,165.492 216.827,189.826 230,221.5C 234.306,232.723 238.306,244.056 242,255.5C 242.808,257.579 242.641,259.579 241.5,261.5C 226.613,274.1 210.613,284.933 193.5,294C 210,343.885 241.333,381.218 287.5,406C 298.562,412.298 310.229,417.132 322.5,420.5C 323.763,415.968 325.597,411.635 328,407.5C 335.902,395.432 344.736,384.099 354.5,373.5 Z"/></g>
<g><path style="opacity:1" fill="#fcfaf9" d="M 315.5,147.5 C 373.572,148.445 417.406,173.779 447,223.5C 454.647,239.751 459.981,256.751 463,274.5C 463.667,282.833 463.667,291.167 463,299.5C 458.714,305.222 453.714,305.889 448,301.5C 448.309,266.09 437.309,234.756 415,207.5C 388.645,179.579 356.145,165.079 317.5,164C 311.619,159.116 310.952,153.616 315.5,147.5 Z"/></g>
<g><path style="opacity:1" fill="#fcfaf9" d="M 315.5,189.5 C 356.485,189.908 387.652,207.574 409,242.5C 418.367,260.002 422.367,278.669 421,298.5C 418.459,303.069 414.625,304.569 409.5,303C 408,302.167 406.833,301 406,299.5C 405.548,261.742 389.048,233.575 356.5,215C 343.85,209.07 330.517,206.07 316.5,206C 310.236,200.759 309.903,195.259 315.5,189.5 Z"/></g>
<g><path style="opacity:1" fill="#fcf9f8" d="M 315.5,231.5 C 346.218,232.756 366.718,247.756 377,276.5C 378.397,283.452 378.73,290.452 378,297.5C 374.108,303.259 369.441,303.926 364,299.5C 363.581,298.328 362.915,297.328 362,296.5C 361.015,266.515 345.515,250.681 315.5,249C 308.853,243.044 308.853,237.211 315.5,231.5 Z"/></g>
<g><path style="opacity:1" fill="#fefdfd" d="M 611.5,319.5 C 611.5,416.833 611.5,514.167 611.5,611.5C 514.167,611.5 416.833,611.5 319.5,611.5C 370.905,608.479 418.905,593.979 463.5,568C 554.224,510.086 603.557,427.253 611.5,319.5 Z"/></g>
<g><path style="opacity:1" fill="#fcfbfa" d="M 470.5,441.5 C 469.735,442.66 468.735,443.66 467.5,444.5C 443.006,407.224 409.006,382.724 365.5,371C 363.24,370.451 361.574,369.284 360.5,367.5C 365.271,363.467 369.938,359.301 374.5,355C 414.177,358.92 446.01,376.753 470,408.5C 472.667,413.167 475.333,417.833 478,422.5C 477.211,429.426 474.711,435.759 470.5,441.5 Z"/></g>
<g><path style="opacity:1" fill="#fefefe" d="M -0.5,319.5 C 2.53482,370.975 17.0348,418.975 43,463.5C 100.238,552.551 181.738,601.884 287.5,611.5C 191.5,611.5 95.5,611.5 -0.5,611.5C -0.5,514.167 -0.5,416.833 -0.5,319.5 Z"/></g>
<g><path style="opacity:1" fill="#ec2a2f" d="M 360.5,367.5 C 361.574,369.284 363.24,370.451 365.5,371C 409.006,382.724 443.006,407.224 467.5,444.5C 468.735,443.66 469.735,442.66 470.5,441.5C 470.5,443.167 470.5,444.833 470.5,446.5C 468.54,447.138 466.707,447.138 465,446.5C 464.647,447.672 464.813,448.838 465.5,450C 465.164,451.03 464.497,451.53 463.5,451.5C 463.657,450.127 463.49,448.793 463,447.5C 455.628,436.452 447.462,425.952 438.5,416C 413.933,395.216 385.933,381.049 354.5,373.5C 357.023,372.616 359.69,371.782 362.5,371C 357.259,371.116 356.592,369.95 360.5,367.5 Z"/></g>
</svg>
